#!OML:ASF H:\Terrain\Patient Classification 1\Terrain2\Thursday\justin.ASF
:FULLY-SPECIFIED
:DEGREES
2645
root 12.034 17.6987 20.1743 543.305 -102.219 -192.782
lowerback 4.10509 1.64478 1.79808
upperback 2.98321 2.18485 2.0632
thorax 0.750231 1.07671 1.03497
lowerneck -8.72156 -1.97296 -9.73908
upperneck 42.8259 -5.7293 6.8916
head 17.8565 -3.76506 3.80545
rclavicle 6.65307e-015 8.74653e-015
rhumerus -42.5279 -12.3506 -75.3308
rradius 27.5138
rwrist -10.7247
rhand -20.3041 13.0084
rfingers 7.12502
rthumb 6.04628 -16.8853
lclavicle 6.65307e-015 8.74653e-015
lhumerus -45.743 8.25889 73.2759
lradius 46.9133
lwrist 6.9593
lhand -18.0653 19.8555
lfingers 7.12502
lthumb 8.20735 49.6761
rfemur -8.61913 -7.58206 25.1774
rtibia 36.1867
rfoot -7.26982 -2.62038
rtoes 2.53687
lfemur -3.24626 2.07264 4.44694
ltibia 103.75
lfoot -5.46541 -43.2095
ltoes 22.4362
2646
root 11.9641 17.5754 20.1616 547.363 -101.797 -196.764
lowerback 4.11306 1.61023 2.45408
upperback 3.00218 2.14924 2.41009
thorax 0.778052 1.06195 1.0261
lowerneck -8.59294 -1.8385 -10.022
upperneck 42.6415 -5.4343 6.89946
head 17.6804 -3.68395 3.90521
rclavicle -1.47287e-014 -7.95139e-015
rhumerus -41.4206 -12.6634 -74.8195
rradius 26.1752
rwrist -9.22205
rhand -20.0634 12.7914
rfingers 7.12502
rthumb 6.27861 -17.0955
lclavicle -1.47287e-014 -7.95139e-015
lhumerus -45.6532 10.2811 72.7345
lradius 45.7204
lwrist 5.66028
lhand -17.4471 19.6862
lfingers 7.12502
lthumb 8.80393 49.4826
rfemur -8.90344 -7.67997 26.1963
rtibia 37.0032
rfoot -9.13751 -2.72622
rtoes 2.90331
lfemur -3.66966 2.79822 6.42707
ltibia 105.577
lfoot -5.50005 -42.9816
ltoes 20.9857
2647
root 11.8985 17.463 20.1502 546.705 -101.307 -196.078
lowerback 4.26804 1.52548 1.94934
upperback 3.07615 2.01971 2.59288
thorax 0.742934 0.986332 1.49678
lowerneck -8.54986 -1.6391 -10.284
upperneck 42.5355 -4.94558 6.67519
head 17.5371 -3.54887 3.92484
rclavicle 4.9075e-015 -1.03368e-014
rhumerus -40.1912 -12.7363 -74.286
rradius 24.8768
rwrist -8.03187
rhand -19.4817 13.0827
rfingers 7.12502
rthumb 6.84014 -16.7868
lclavicle 4.9075e-015 -1.03368e-014
lhumerus -45.7147 12.4444 72.3351
lradius 44.5326
lwrist 4.88359
lhand -18.4438 19.8452
lfingers 7.12502
lthumb 7.842 49.6797
rfemur -8.97341 -7.70895 26.1271
rtibia 37.6469
rfoot -10.9078 -3.02286
rtoes 3.08999
lfemur -3.93359 3.54131 6.94801
ltibia 107.333
lfoot -5.56145 -41.8682
ltoes 19.1006
2648
root 11.84 17.3627 20.1406 544.111 -100.955 -193.429
lowerback 4.43145 1.45907 1.14725
upperback 3.1795 1.90575 2.6402
thorax 0.730793 0.916225 1.99575
lowerneck -8.68538 -1.5117 -10.4644
upperneck 42.5738 -4.58943 6.45058
head 17.5447 -3.45785 3.91213
rclavicle -1.99406e-015 -2.94201e-014
rhumerus -39.0745 -13.0682 -73.7939
rradius 23.9025
rwrist -6.79477
rhand -19.4276 13.2465
rfingers 7.12502
rthumb 6.89237 -16.6213
lclavicle -1.99406e-015 -2.94201e-014
lhumerus -45.6688 13.8355 72.4591
lradius 43.544
lwrist 5.83508
lhand -20.6935 20.3415
lfingers 7.12502
lthumb 5.67028 50.2456
rfemur -8.96465 -7.77888 25.7351
rtibia 38.092
rfoot -12.6737 -3.83292
rtoes 2.60923
lfemur -4.37698 4.24361 6.87756
ltibia 109.127
lfoot -5.7366 -40.3256
ltoes 16.6096
2649
root 11.787 17.2719 20.1277 543.717 -100.785 -192.982
lowerback 4.60037 1.49632 0.907813
upperback 3.24773 1.94785 2.65133
thorax 0.697281 0.932622 2.13644
lowerneck -8.76641 -1.5407 -10.3256
upperneck 42.5766 -4.62179 6.35037
head 17.5637 -3.45837 3.83378
rclavicle -1.38901e-014 -1.51076e-014
rhumerus -38.3032 -14.3802 -73.1861
rradius 23.2403
rwrist -5.11642
rhand -19.9909 12.5933
rfingers 7.12502
rthumb 6.34859 -17.2915
lclavicle -1.38901e-014 -1.51076e-014
lhumerus -45.411 14.6071 72.6461
lradius 42.4222
lwrist 6.5801
lhand -22.1775 20.6198
lfingers 7.12502
lthumb 4.23732 50.5574
rfemur -8.95853 -7.95958 25.8558
rtibia 38.5032
rfoot -14.5001 -4.83311
rtoes 1.83162
lfemur -5.05228 5.06094 7.52169
ltibia 110.993
lfoot -6.11917 -38.5774
ltoes 12.572
